<?xml version="1.0" encoding="UTF-8"?>
<svg version="1.1" xmlns="http://www.w3.org/2000/svg" width="1080" height="1080">
<path d="M0 0 C1.01368652 0.19335938 2.02737305 0.38671875 3.07177734 0.5859375 C63.38744708 12.43512773 121.55048889 45.55009307 159 95 C159.92491247 96.17386214 160.85076138 97.34698679 161.77734375 98.51953125 C169.80252334 108.80383417 176.52729482 119.68833683 183 131 C183.56412598 131.96341309 183.56412598 131.96341309 184.13964844 132.94628906 C198.18697071 156.99161161 206.76983245 184.76311654 212 212 C212.24991699 213.28148926 212.24991699 213.28148926 212.50488281 214.58886719 C217.78083408 243.21882219 217.6411118 276.48272181 212 305 C211.69400879 306.56041016 211.69400879 306.56041016 211.38183594 308.15234375 C202.83963472 350.37842138 185.12581297 389.48212373 158 423 C157.56526367 423.53915039 157.13052734 424.07830078 156.68261719 424.63378906 C144.96191913 439.04030336 131.82431259 452.77321933 117 464 C115.82613786 464.92491247 114.65301321 465.85076138 113.48046875 466.77734375 C103.19616583 474.80252334 92.31166317 481.52729482 81 488 C80.03658691 488.56412598 80.03658691 488.56412598 79.05371094 489.13964844 C55.00468855 503.18913217 27.23827221 511.76132022 0 517 C-1.27351318 517.24991699 -1.27351318 517.24991699 -2.57275391 517.50488281 C-33.06077713 523.16535378 -67.73949115 522.38136874 -98 516 C-99.02593262 515.78569336 -100.05186523 515.57138672 -101.10888672 515.35058594 C-159.53979561 502.72928916 -215.60088922 470.06291423 -252 422 C-252.92491247 420.82613786 -253.85076138 419.65301321 -254.77734375 418.48046875 C-262.80252334 408.19616583 -269.52729482 397.31166317 -276 386 C-276.56412598 385.03658691 -276.56412598 385.03658691 -277.13964844 384.05371094 C-291.18697071 360.00838839 -299.76983245 332.23688346 -305 305 C-305.16661133 304.14567383 -305.33322266 303.29134766 -305.50488281 302.41113281 C-310.78563955 273.75510092 -310.60086085 240.5471413 -305 212 C-304.80664062 210.98631348 -304.61328125 209.97262695 -304.4140625 208.92822266 C-292.56487227 148.61255292 -259.44990693 90.44951111 -210 53 C-208.82613786 52.07508753 -207.65301321 51.14923862 -206.48046875 50.22265625 C-196.19616583 42.19747666 -185.31166317 35.47270518 -174 29 C-173.03658691 28.43587402 -173.03658691 28.43587402 -172.05371094 27.86035156 C-148.00838839 13.81302929 -120.23688346 5.23016755 -93 0 C-92.14567383 -0.16661133 -91.29134766 -0.33322266 -90.41113281 -0.50488281 C-61.75510092 -5.78563955 -28.5471413 -5.60086085 0 0 Z M-165 40 C-166.15757812 40.61359375 -167.31515625 41.2271875 -168.5078125 41.859375 C-181.83515994 49.20611323 -194.40023336 58.15653606 -206 68 C-206.7115625 68.60070312 -207.423125 69.20140625 -208.15625 69.8203125 C-223.01311661 82.79463094 -236.67572481 96.83200828 -248 113 C-248.5057959 113.71478516 -249.0115918 114.42957031 -249.53271484 115.16601562 C-288.65710774 170.83493324 -302.17289267 237.36741039 -291.15625 304.2578125 C-286.6098581 329.92682164 -277.171996 354.04743894 -265 377 C-264.38640625 378.15757812 -263.7728125 379.31515625 -263.140625 380.5078125 C-255.79388677 393.83515994 -246.84346394 406.40023336 -237 418 C-236.09894531 419.06734375 -236.09894531 419.06734375 -235.1796875 420.15625 C-222.20536906 435.01311661 -208.16799172 448.67572481 -192 460 C-191.28521484 460.5057959 -190.57042969 461.0115918 -189.83398438 461.53271484 C-136.27833267 499.17189393 -69.72023083 514.8690464 -5 504 C2.4147381 502.64423273 9.71441809 500.92610505 17 499 C18.23943359 498.67757324 18.23943359 498.67757324 19.50390625 498.34863281 C48.19034821 490.74513453 75.1361491 477.59492273 99 460 C99.57540527 459.58008789 100.15081055 459.16017578 100.74365234 458.72753906 C108.98370891 452.68373004 116.6370521 446.08163926 124 439 C125.02383789 438.02498535 125.02383789 438.02498535 126.06835938 437.03027344 C136.82032635 426.74475902 146.44305937 416.17782505 155 404 C155.50724609 403.28376465 156.01449219 402.5675293 156.53710938 401.82958984 C195.65772923 346.16079905 209.17252341 279.63034757 198.15625 212.7421875 C193.6098581 187.07317836 184.171996 162.95256106 172 140 C171.38640625 138.84242188 170.7728125 137.68484375 170.140625 136.4921875 C162.79388677 123.16484006 153.84346394 110.59976664 144 99 C143.09894531 97.93265625 143.09894531 97.93265625 142.1796875 96.84375 C129.20536906 81.98688339 115.16799172 68.32427519 99 57 C98.28521484 56.4942041 97.57042969 55.9884082 96.83398438 55.46728516 C20.84562907 2.06229012 -78.73533903 -4.69782253 -165 40 Z " fill="#000000" transform="translate(615,267)"/>
<path d="M0 0 C7.07273502 6.57531189 13.14225433 16.69054457 13.953125 26.45703125 C13.96293602 28.08566021 13.88108955 29.71449291 13.77734375 31.33984375 C5.50076557 33.57675677 -2.72958187 35.17547065 -11.22265625 36.33984375 C-11.58617187 35.60378906 -11.9496875 34.86773437 -12.32421875 34.109375 C-16.6299418 25.75185616 -20.37890208 21.1031434 -29.22265625 17.33984375 C-40.58487039 14.55726069 -51.96811913 15.96212148 -61.97265625 21.96484375 C-69.69208534 27.47482494 -73.98761842 36.01783193 -75.78125 45.19921875 C-77.49567928 57.39745897 -76.33764967 70.58211355 -69.80078125 81.2734375 C-63.85677721 89.05655171 -56.85504812 93.70628022 -47.22265625 95.33984375 C-34.98795167 96.35386139 -24.37422511 93.72633885 -13.9296875 87.29296875 C-12.22265625 86.33984375 -12.22265625 86.33984375 -10.22265625 86.33984375 C-10.22265625 82.37984375 -10.22265625 78.41984375 -10.22265625 74.33984375 C-20.12265625 74.33984375 -30.02265625 74.33984375 -40.22265625 74.33984375 C-40.22265625 65.75984375 -40.22265625 57.17984375 -40.22265625 48.33984375 C-22.07265625 48.33984375 -3.92265625 48.33984375 14.77734375 48.33984375 C14.77734375 55.92984375 14.77734375 63.51984375 14.77734375 71.33984375 C18.40734375 71.33984375 22.03734375 71.33984375 25.77734375 71.33984375 C29.73734375 86.84984375 33.69734375 102.35984375 37.77734375 118.33984375 C39.28965517 115.3152209 40.20911614 113.12120872 41.01416016 109.93847656 C41.23423737 109.07788635 41.45431458 108.21729614 41.68106079 107.33062744 C41.91134979 106.41070007 42.14163879 105.49077271 42.37890625 104.54296875 C42.62023285 103.59419861 42.86155945 102.64542847 43.11019897 101.66790771 C43.87856332 98.64296156 44.6405297 95.61644546 45.40234375 92.58984375 C45.92275595 90.53635156 46.44358439 88.48296481 46.96484375 86.4296875 C48.24129251 81.40112979 49.50907561 76.3704993 50.77734375 71.33984375 C58.69734375 71.33984375 66.61734375 71.33984375 74.77734375 71.33984375 C75.62505586 75.57840428 75.89868708 78.96504256 75.89086914 83.24145508 C75.89101517 83.91518158 75.89116119 84.58890808 75.89131165 85.28305054 C75.89061847 87.49602549 75.88285411 89.70891486 75.875 91.921875 C75.8731337 93.4617254 75.8717108 95.0015764 75.87071228 96.54142761 C75.86690377 100.58395034 75.85708777 104.62643684 75.8460083 108.66894531 C75.8357583 112.7981721 75.83120698 116.92740477 75.82617188 121.05664062 C75.81546395 129.15105825 75.79840761 137.24544648 75.77734375 145.33984375 C78.08734375 145.33984375 80.39734375 145.33984375 82.77734375 145.33984375 C82.77734375 160.18984375 82.77734375 175.03984375 82.77734375 190.33984375 C79.80734375 190.33984375 76.83734375 190.33984375 73.77734375 190.33984375 C73.77734375 177.13984375 73.77734375 163.93984375 73.77734375 150.33984375 C71.13734375 150.33984375 68.49734375 150.33984375 65.77734375 150.33984375 C65.77734375 163.53984375 65.77734375 176.73984375 65.77734375 190.33984375 C62.80734375 190.33984375 59.83734375 190.33984375 56.77734375 190.33984375 C56.77734375 184.06984375 56.77734375 177.79984375 56.77734375 171.33984375 C50.83734375 171.33984375 44.89734375 171.33984375 38.77734375 171.33984375 C38.77734375 177.60984375 38.77734375 183.87984375 38.77734375 190.33984375 C35.80734375 190.33984375 32.83734375 190.33984375 29.77734375 190.33984375 C29.80465576 189.09114502 29.83196777 187.84244629 29.86010742 186.5559082 C30.42886241 154.90320862 26.77149344 126.68488085 17.77734375 96.33984375 C17.67579349 103.63545828 17.60581484 110.93089004 17.55761719 118.22705078 C17.53752134 120.70823986 17.51023991 123.1893817 17.47558594 125.67041016 C17.42698081 129.24002757 17.40435403 132.80901791 17.38671875 136.37890625 C17.36607361 137.48537506 17.34542847 138.59184387 17.32415771 139.73184204 C17.32233649 146.00479281 17.71938817 149.49821152 21.77734375 154.33984375 C22.80665814 158.81282025 22.22435712 163.1001259 20.21484375 167.21484375 C17.38478425 170.84312516 15.24208073 172.53752829 10.77734375 173.33984375 C6.07892987 173.56627333 1.48758265 173.474422 -3.22265625 173.33984375 C-3.22265625 178.94984375 -3.22265625 184.55984375 -3.22265625 190.33984375 C-6.19265625 190.33984375 -9.16265625 190.33984375 -12.22265625 190.33984375 C-12.22265625 175.48984375 -12.22265625 160.63984375 -12.22265625 145.33984375 C-7.60265625 145.33984375 -2.98265625 145.33984375 1.77734375 145.33984375 C1.77734375 134.77984375 1.77734375 124.21984375 1.77734375 113.33984375 C-2.84265625 115.31984375 -7.46265625 117.29984375 -12.22265625 119.33984375 C-32.57493406 125.55264434 -53.43049072 125.48559626 -72.59399414 115.58911133 C-87.60756856 107.39368725 -95.06882542 94.26843368 -100.1953125 78.3125 C-105.33487178 58.59093533 -103.68833219 35.45985198 -94.22265625 17.33984375 C-85.36575517 2.90135074 -73.03436594 -6.47285383 -56.53515625 -10.59765625 C-37.09701087 -14.1100484 -16.19201231 -12.09420954 0 0 Z M59.77734375 96.33984375 C55.48734375 113.82984375 51.19734375 131.31984375 46.77734375 149.33984375 C44.13734375 149.66984375 41.49734375 149.99984375 38.77734375 150.33984375 C38.77734375 154.62984375 38.77734375 158.91984375 38.77734375 163.33984375 C44.71734375 163.33984375 50.65734375 163.33984375 56.77734375 163.33984375 C56.77734375 157.39984375 56.77734375 151.45984375 56.77734375 145.33984375 C58.09734375 145.33984375 59.41734375 145.33984375 60.77734375 145.33984375 C60.77734375 129.16984375 60.77734375 112.99984375 60.77734375 96.33984375 C60.44734375 96.33984375 60.11734375 96.33984375 59.77734375 96.33984375 Z M-3.22265625 153.33984375 C-3.22265625 157.29984375 -3.22265625 161.25984375 -3.22265625 165.33984375 C-1.32515625 165.42234375 0.57234375 165.50484375 2.52734375 165.58984375 C4.12835937 165.65945313 4.12835937 165.65945313 5.76171875 165.73046875 C8.87104333 165.58215311 8.87104333 165.58215311 11.171875 163.51953125 C13.09530841 161.37150188 13.09530841 161.37150188 12.71484375 158.21484375 C12.01039688 155.04809443 12.01039688 155.04809443 8.77734375 153.33984375 C4.76234444 153.07110216 0.80596968 153.25320663 -3.22265625 153.33984375 Z " fill="#020100" transform="translate(565.22265625,429.66015625)"/>
<path d="M0 0 C0.89457916 0.00054382 1.78915833 0.00108765 2.71084595 0.00164795 C61.96613954 0.16643091 115.64289764 23.56514187 158.1875 64.375 C159.01121094 65.15746094 159.83492187 65.93992187 160.68359375 66.74609375 C198.4597615 103.47474212 222.5890393 158.73673864 223.5234375 211.33203125 C223.56414666 214.95075775 223.5703408 218.56857622 223.5625 222.1875 C223.56168427 223.60656143 223.56168427 223.60656143 223.56085205 225.05429077 C223.5201733 240.4830909 222.6358952 255.27974188 219.1875 270.375 C218.86604004 271.79232422 218.86604004 271.79232422 218.53808594 273.23828125 C208.87780746 314.35422632 188.27773835 350.04819467 159.1875 380.375 C158.40503906 381.19871094 157.62257813 382.02242187 156.81640625 382.87109375 C120.08775788 420.6472615 64.82576136 444.7765393 12.23046875 445.7109375 C8.61174225 445.75164666 4.99392378 445.7578408 1.375 445.75 C0.42895905 445.74945618 -0.51708191 445.74891235 -1.49179077 445.74835205 C-16.9205909 445.7076733 -31.71724188 444.8233952 -46.8125 441.375 C-48.22982422 441.05354004 -48.22982422 441.05354004 -49.67578125 440.72558594 C-90.79172632 431.06530746 -126.48569467 410.46523835 -156.8125 381.375 C-158.04806641 380.20130859 -158.04806641 380.20130859 -159.30859375 379.00390625 C-197.0847615 342.27525788 -221.2140393 287.01326136 -222.1484375 234.41796875 C-222.18914666 230.79924225 -222.1953408 227.18142378 -222.1875 223.5625 C-222.18695618 222.61645905 -222.18641235 221.67041809 -222.18585205 220.69570923 C-222.1451733 205.2669091 -221.2608952 190.47025812 -217.8125 175.375 C-217.49104004 173.95767578 -217.49104004 173.95767578 -217.16308594 172.51171875 C-207.50280746 131.39577368 -186.90273835 95.70180533 -157.8125 65.375 C-157.03003906 64.55128906 -156.24757813 63.72757812 -155.44140625 62.87890625 C-115.27760099 21.56960922 -56.98110699 -0.13113264 0 0 Z M-83.8125 26.375 C-84.55935059 26.69194824 -85.30620117 27.00889648 -86.07568359 27.33544922 C-108.51221229 37.00265133 -128.80832831 50.99339304 -146.35009766 67.96386719 C-147.88054707 69.44066145 -149.43051517 70.8952745 -150.98046875 72.3515625 C-159.62538941 80.60123495 -166.85640293 89.67642079 -173.8125 99.375 C-174.26753906 100.00664062 -174.72257812 100.63828125 -175.19140625 101.2890625 C-192.90120567 126.13564676 -204.00709057 154.50723804 -209.8125 184.375 C-209.98894043 185.26509766 -210.16538086 186.15519531 -210.34716797 187.07226562 C-217.96035206 227.24331826 -211.77383729 270.02990658 -195.8125 307.375 C-195.49555176 308.12185059 -195.17860352 308.86870117 -194.85205078 309.63818359 C-185.18484867 332.07471229 -171.19410696 352.37082831 -154.22363281 369.91259766 C-152.74683855 371.44304707 -151.2922255 372.99301517 -149.8359375 374.54296875 C-141.58626505 383.18788941 -132.51107921 390.41890293 -122.8125 397.375 C-122.18085938 397.83003906 -121.54921875 398.28507812 -120.8984375 398.75390625 C-96.05185324 416.46370567 -67.68026196 427.56959057 -37.8125 433.375 C-36.47735352 433.63966064 -36.47735352 433.63966064 -35.11523438 433.90966797 C5.05581826 441.52285206 47.84240658 435.33633729 85.1875 419.375 C85.93435059 419.05805176 86.68120117 418.74110352 87.45068359 418.41455078 C109.88721229 408.74734867 130.18332831 394.75660696 147.72509766 377.78613281 C149.25554707 376.30933855 150.80551517 374.8547255 152.35546875 373.3984375 C161.00038941 365.14876505 168.23140293 356.07357921 175.1875 346.375 C175.64253906 345.74335937 176.09757812 345.11171875 176.56640625 344.4609375 C194.27620567 319.61435324 205.38209057 291.24276196 211.1875 261.375 C211.45216064 260.03985352 211.45216064 260.03985352 211.72216797 258.67773438 C219.33535206 218.50668174 213.14883729 175.72009342 197.1875 138.375 C196.71207764 137.25472412 196.71207764 137.25472412 196.22705078 136.11181641 C186.55984867 113.67528771 172.56910696 93.37917169 155.59863281 75.83740234 C154.12183855 74.30695293 152.6672255 72.75698483 151.2109375 71.20703125 C142.96126505 62.56211059 133.88607921 55.33109707 124.1875 48.375 C123.24003906 47.69244141 123.24003906 47.69244141 122.2734375 46.99609375 C97.42685324 29.28629433 69.05526196 18.18040943 39.1875 12.375 C38.29740234 12.19855957 37.40730469 12.02211914 36.49023438 11.84033203 C-3.68081826 4.22714794 -46.46740658 10.41366271 -83.8125 26.375 Z " fill="#000000" transform="translate(567.8125,302.625)"/>
<path d="M0 0 C4.62 0 9.24 0 14 0 C14.78316306 3.91581529 15.18033002 7.22957063 15.31640625 11.17578125 C15.37924805 12.91118164 15.37924805 12.91118164 15.44335938 14.68164062 C15.48267578 15.87982422 15.52199219 17.07800781 15.5625 18.3125 C15.60568359 19.53001953 15.64886719 20.74753906 15.69335938 22.00195312 C15.79921496 25.0011947 15.90129726 28.00051591 16 31 C16.71285156 30.21496094 17.42570313 29.42992187 18.16015625 28.62109375 C22.80248092 23.52395771 27.45559083 18.48120707 32.37890625 13.65234375 C34.81426379 11.17003956 37.06756996 8.5389574 39.32421875 5.89453125 C39.87722656 5.26933594 40.43023438 4.64414062 41 4 C41.52722656 3.26652344 42.05445313 2.53304688 42.59765625 1.77734375 C46.3853581 -1.02493973 50.17692221 -0.4256278 54.75 -0.25 C55.63816406 -0.23195313 56.52632812 -0.21390625 57.44140625 -0.1953125 C59.62870848 -0.14827374 61.81379816 -0.08257009 64 0 C63.01 1.32 62.02 2.64 61 4 C62.32 4.66 63.64 5.32 65 6 C56.75 14.25 48.5 22.5 40 31 C41.4955645 34.73891125 42.81207136 37.49868337 44.94140625 40.80859375 C45.81019409 42.16730591 45.81019409 42.16730591 46.6965332 43.5534668 C47.31230225 44.50519775 47.92807129 45.45692871 48.5625 46.4375 C56.00953389 57.95035043 56.00953389 57.95035043 58.609375 62.453125 C62.67765268 69.90173902 62.67765268 69.90173902 69.75 74 C70.48734375 74.14953125 71.2246875 74.2990625 71.984375 74.453125 C75.7578496 75.47693594 76.99038537 77.73437622 79 81 C79.8125 84.875 79.8125 84.875 80 88 C76.92779394 88.35448531 74.0559338 88.5430405 71 88 C69.61061923 86.03852126 68.2739589 84.03833424 67 82 C62.57001031 81.37824706 60.74598733 81.50267511 57 84 C57 85.32 57 86.64 57 88 C57.58491211 88.1858667 58.16982422 88.3717334 58.77246094 88.56323242 C61.437514 89.42083825 64.09348319 90.30382395 66.75 91.1875 C67.67039062 91.47947266 68.59078125 91.77144531 69.5390625 92.07226562 C75.66552456 94.13661697 79.01785148 96.03570296 82 102 C82.38023402 106.56280819 82.42738029 109.07400938 80.5 113.25 C76.55325104 117.59142385 72.93206464 119.65344787 67.05859375 120.34765625 C60.37258066 120.54011971 54.70689318 120.281036 49.50390625 115.67578125 C46.41264844 112.33932452 45.3204966 109.48695234 45 105 C49.455 104.505 49.455 104.505 54 104 C54.928125 105.4540625 54.928125 105.4540625 55.875 106.9375 C57.65678846 110.02835362 57.65678846 110.02835362 60 111 C66.08516056 111.23333287 66.08516056 111.23333287 72 110 C72 108.02 72 106.04 72 104 C67.63230014 102.30145005 63.33425893 100.79632328 58.8125 99.5625 C54.0025949 98.14391048 50.74607015 96.32809353 47.6875 92.25 C46.63049205 88.79070126 46.88523863 85.61498301 47 82 C47 77.92662229 45.10784514 75.24549785 43.125 71.8125 C42.72804932 71.11431152 42.33109863 70.41612305 41.92211914 69.69677734 C38.48533602 63.70900064 34.84513213 57.85335767 31.10009766 52.05395508 C28 47.20797406 28 47.20797406 28 45 C26.74839762 46.08148167 25.49879619 47.16527922 24.25 48.25 C23.55390625 48.85328125 22.8578125 49.4565625 22.140625 50.078125 C21.43421875 50.71234375 20.7278125 51.3465625 20 52 C19.2678125 52.5465625 18.535625 53.093125 17.78125 53.65625 C15.04454439 57.25717843 15.32580298 60.83964464 15.25 65.25 C15.22035156 66.09046875 15.19070313 66.9309375 15.16015625 67.796875 C15.08968364 69.8640715 15.04255061 71.93204033 15 74 C15.99 73.505 15.99 73.505 17 73 C23.17658165 72.36570458 28.79854885 72.45421107 34.2734375 75.5859375 C37.3741128 78.1254046 39.36522907 81.36892225 41 85 C41 85.66 41 86.32 41 87 C36.545 87.99 36.545 87.99 32 89 C31.401875 88.030625 30.80375 87.06125 30.1875 86.0625 C28.28872491 82.76947958 28.28872491 82.76947958 25 82 C20.04624138 81.63305492 16.89587373 81.77199034 13 85 C10.19662739 90.71456725 10.03709469 97.04295116 11.53515625 103.19921875 C12.52739957 105.78555791 13.59949927 107.67101726 15.75 109.4375 C19.05844254 110.26461064 21.59881759 110.41768907 25 110 C28.49229706 107.20616235 29.98582003 105.02835993 32 101 C34.97 101.99 37.94 102.98 41 104 C39.33178028 110.36956621 36.536587 114.50789 30.8125 117.875 C23.93534939 119.90432313 18.31370591 119.91868594 11.6875 117 C6.27181262 114.01115366 3.27437129 109.97110539 1.39453125 104.11328125 C-0.05667677 96.33997891 0.58418675 89.09438137 4 82 C4.99 81.01 4.99 81.01 6 80 C4.35 79.67 2.7 79.34 1 79 C-0.00770792 74.8294437 -0.12082358 70.92344435 -0.11352539 66.6394043 C-0.11367142 65.91690994 -0.11381744 65.19441559 -0.1139679 64.45002747 C-0.11327422 62.07472678 -0.10550745 59.69950565 -0.09765625 57.32421875 C-0.09579013 55.67226708 -0.09436714 54.02031485 -0.09336853 52.36836243 C-0.08955861 48.02992208 -0.07974139 43.69151545 -0.06866455 39.35308838 C-0.0584176 34.92224585 -0.05386388 30.49139785 -0.04882812 26.06054688 C-0.03811771 17.37368075 -0.0205333 8.68684846 0 0 Z " fill="#010100" transform="translate(654,501)"/>
<path d="M0 0 C6.5278125 -0.061875 6.5278125 -0.061875 13.1875 -0.125 C15.23360474 -0.15231201 15.23360474 -0.15231201 17.32104492 -0.18017578 C18.40490479 -0.1851709 19.48876465 -0.19016602 20.60546875 -0.1953125 C22.26292114 -0.21102295 22.26292114 -0.21102295 23.95385742 -0.22705078 C28.23876983 0.09233437 31.0009892 1.1397407 34.25 3.9375 C37.43449292 7.69065237 37.32795839 11.24460336 37 16 C35.3390474 19.65409572 33.46027926 21.94545919 30 24 C29.01 24 28.02 24 27 24 C27.43570312 24.53367187 27.87140625 25.06734375 28.3203125 25.6171875 C28.91585938 26.36226562 29.51140625 27.10734375 30.125 27.875 C30.70507812 28.59429688 31.28515625 29.31359375 31.8828125 30.0546875 C34.86622215 34.20503967 37.41723435 38.59246593 40 43 C40.43868408 41.94611084 40.87736816 40.89222168 41.3293457 39.80639648 C42.96716228 35.87199882 44.60545922 31.93780133 46.24389648 28.00366211 C46.95105751 26.30547396 47.6580907 24.60723257 48.36499023 22.90893555 C49.38491215 20.45867915 50.40530358 18.00861873 51.42578125 15.55859375 C51.73840408 14.80726669 52.05102692 14.05593964 52.37312317 13.28184509 C54.22259192 8.843027 56.098384 4.41673864 58 0 C61.3 0 64.6 0 68 0 C72.47048876 11.01177613 76.82323305 22.06061293 81 33.1875 C81.59639282 34.77304687 81.59639282 34.77304687 82.20483398 36.390625 C82.57036377 37.36902344 82.93589355 38.34742188 83.3125 39.35546875 C83.63863281 40.22840576 83.96476563 41.10134277 84.30078125 42.00073242 C85 44 85 44 85 45 C81.7 45 78.4 45 75 45 C74.01 41.7 73.02 38.4 72 35 C65.73 35 59.46 35 53 35 C52.01 38.3 51.02 41.6 50 45 C32.92948669 47.23739738 32.92948669 47.23739738 28.13574219 43.57617188 C25.04561386 39.96615428 23.02188006 35.88026688 20.91796875 31.64990234 C19.60865408 29.29661815 18.41574749 28.19493224 16 27 C13.69 26.67 11.38 26.34 9 26 C9 32.27 9 38.54 9 45 C6.03 45 3.06 45 0 45 C0 30.15 0 15.3 0 0 Z M9 8 C9 11.3 9 14.6 9 18 C11.41734542 18.08117951 13.83194949 18.14056926 16.25 18.1875 C16.93191406 18.21263672 17.61382812 18.23777344 18.31640625 18.26367188 C21.59199289 18.31137459 23.65348556 18.21085076 26.484375 16.48828125 C26.98453125 15.99714844 27.4846875 15.50601563 28 15 C27.65772428 12.02934491 27.65772428 12.02934491 27 9 C23.81175432 7.40587716 20.37103338 7.89825265 16.875 7.9375 C15.74384766 7.94426758 15.74384766 7.94426758 14.58984375 7.95117188 C12.72652873 7.96296501 10.86325445 7.98090058 9 8 Z M62 11 C61.1605118 13.10171867 60.32860344 15.20646625 59.5 17.3125 C59.0359375 18.48425781 58.571875 19.65601563 58.09375 20.86328125 C56.83537487 23.91846448 56.83537487 23.91846448 57 27 C60.63 27 64.26 27 68 27 C67.22181136 23.10905678 66.31126232 19.86563783 64.9375 16.1875 C64.57527344 15.21167969 64.21304688 14.23585938 63.83984375 13.23046875 C63.56269531 12.49441406 63.28554688 11.75835938 63 11 C62.67 11 62.34 11 62 11 Z " fill="#000000" transform="translate(463,575)"/>
<path d="M0 0 C3.53532346 3.06806125 5.58188695 6.26138546 6 11 C3.03 11.66 0.06 12.32 -3 13 C-3.4125 12.21625 -3.825 11.4325 -4.25 10.625 C-6.1377332 7.7934002 -6.7896575 6.95442615 -10 6 C-14.8006511 5.53542086 -17.04181765 5.52090883 -21.375 7.6875 C-24.86420693 10.76132515 -25.78414293 12.69229174 -26.21484375 17.296875 C-26.42991975 22.97488148 -25.9090602 27.08469139 -23 32 C-19.58845075 35.02165791 -16.58950722 35.40152212 -12.0703125 35.23828125 C-8.88854718 34.87207807 -6.0360106 34.01200353 -3 33 C-3 31.02 -3 29.04 -3 27 C-6.63 27 -10.26 27 -14 27 C-14 24.36 -14 21.72 -14 19 C-7.4 19 -0.8 19 6 19 C6.1546875 23.33125 6.1546875 23.33125 6.3125 27.75 C6.35802002 28.65331055 6.40354004 29.55662109 6.45043945 30.48730469 C6.55280201 36.39659608 6.55280201 36.39659608 3.73828125 39.46875 C-4.15665473 43.88360721 -12.6152235 45.74938923 -21.5234375 43.30859375 C-28.03467694 40.7235668 -31.95851685 36.74382609 -34.8125 30.3125 C-37.40806272 22.48106075 -36.69073682 14.69557761 -33.33203125 7.23046875 C-30.58974061 2.63853925 -26.97280727 -0.01359636 -22.25 -2.375 C-14.74330622 -3.81859496 -6.72840813 -4.08891923 0 0 Z " fill="#000000" transform="translate(448,577)"/>
<path d="M0 0 C4.24854072 2.43023522 6.64182015 6.09505244 8.625 10.5 C8.625 11.16 8.625 11.82 8.625 12.5 C5.655 13.16 2.685 13.82 -0.375 14.5 C-0.973125 13.530625 -1.57125 12.56125 -2.1875 11.5625 C-4.08627509 8.26947958 -4.08627509 8.26947958 -7.375 7.5 C-12.32875862 7.13305492 -15.47912627 7.27199034 -19.375 10.5 C-22.17837261 16.21456725 -22.33790531 22.54295116 -20.83984375 28.69921875 C-19.84760043 31.28555791 -18.77550073 33.17101726 -16.625 34.9375 C-13.31655746 35.76461064 -10.77618241 35.91768907 -7.375 35.5 C-3.88270294 32.70616235 -2.38917997 30.52835993 -0.375 26.5 C2.595 27.49 5.565 28.48 8.625 29.5 C6.95678028 35.86956621 4.161587 40.00789 -1.5625 43.375 C-8.43965061 45.40432313 -14.06129409 45.41868594 -20.6875 42.5 C-26.10318738 39.51115366 -29.10062871 35.47110539 -30.98046875 29.61328125 C-32.3274488 22.39826932 -32.48945018 13.83516336 -28.375 7.5 C-20.78306769 -0.79854073 -10.89936895 -4.67411268 0 0 Z " fill="#000000" transform="translate(686.375,575.5)"/>
<path d="M0 0 C1.89610642 2.84415963 2.96430261 5.3272013 4.1875 8.5 C10.86261959 24.64129796 20.23206808 33.3390677 35.97460938 40.18554688 C54.11997859 47.48219004 75.62562355 45.04891055 93.3125 37.8125 C94.55941131 37.27925144 95.80557359 36.74424603 97.05078125 36.20703125 C100 35 100 35 102 35 C102 36.65 102 38.3 102 40 C81.73443296 49.14169374 59.82240708 54.25795297 38 47 C21.10260558 40.28621145 10.54652208 30.6275486 3.125 13.8125 C1.26739201 9.14107268 0.28897561 5.00891063 0 0 Z " fill="#F2863D" transform="translate(465,503)"/>
<path d="M0 0 C4.9585399 3.94429311 8.24270604 8.38113503 10.75 14.1875 C10.75 14.8475 10.75 15.5075 10.75 16.1875 C22.63 13.7125 22.63 13.7125 34.75 11.1875 C35.245 13.6625 35.245 13.6625 35.75 16.1875 C27.47342182 18.42441302 19.24307438 20.0231269 10.75 21.1875 C10.38648438 20.45144531 10.02296875 19.71539062 9.6484375 18.95703125 C5.34271445 10.59951241 1.59375417 5.95079965 -7.25 2.1875 C-18.61221414 -0.59508306 -29.99546288 0.80977773 -40 6.8125 C-47.12887869 11.90095758 -50.58638587 19.04867906 -53.25 27.1875 C-53.58 27.1875 -53.91 27.1875 -54.25 27.1875 C-53.89942603 18.07257681 -50.17030063 9.44900458 -43.4375 3.1875 C-30.80240779 -6.73661457 -13.92085372 -7.76355303 0 0 Z " fill="#EF853E" transform="translate(543.25,444.8125)"/>
<path d="M0 0 C2.50044694 1.22483822 4.94895581 2.51374504 7.3984375 3.83984375 C26.31260053 13.93122711 46.28697479 15.97743751 67 10 C71.08398421 8.55876371 75.07533473 6.92214166 79.05078125 5.20703125 C82 4 82 4 84 4 C84 4.66 84 5.32 84 6 C62.36276658 15.36078893 62.36276658 15.36078893 55 15 C55 15.66 55 16.32 55 17 C51.20840036 17.05886171 47.41692081 17.09388224 43.625 17.125 C42.03365234 17.15013672 42.03365234 17.15013672 40.41015625 17.17578125 C30.65467471 17.23563083 21.37114388 16.43254372 13 11 C12.50371094 10.50242187 12.00742187 10.00484375 11.49609375 9.4921875 C9.92002584 7.92023465 8.47369052 7.0709866 6.5 6.0625 C3.56057102 4.45296067 1.77085796 2.91670722 0 0 Z " fill="#F97014" transform="translate(483,534)"/>
<path d="M0 0 C1.54748825 2.28117478 2.9631879 4.55330823 4.3515625 6.9296875 C4.97990494 7.98798264 4.97990494 7.98798264 5.62094116 9.06765747 C6.50700756 10.56369128 7.38944363 12.0618802 8.26855469 13.56201172 C9.61804428 15.86313921 10.97989512 18.15658264 12.34375 20.44921875 C13.20126608 21.90060161 14.05806124 23.35241071 14.9140625 24.8046875 C15.3233902 25.49432587 15.7327179 26.18396423 16.15444946 26.89450073 C19 31.76859138 19 31.76859138 19 34 C21.97 34 24.94 34 28 34 C25.31158141 36.25245881 23.35358125 37.88213958 20 39 C19.46632813 38.030625 18.93265625 37.06125 18.3828125 36.0625 C13.85621411 27.90045482 9.16553528 19.89603673 4.10009766 12.0546875 C1 7.20685898 1 7.20685898 1 5 C-0.25160238 6.08148167 -1.50120381 7.16527922 -2.75 8.25 C-3.44609375 8.85328125 -4.1421875 9.4565625 -4.859375 10.078125 C-5.56578125 10.71234375 -6.2721875 11.3465625 -7 12 C-7.7321875 12.5465625 -8.464375 13.093125 -9.21875 13.65625 C-11.95545561 17.25717843 -11.67419702 20.83964464 -11.75 25.25 C-11.77964844 26.09046875 -11.80929687 26.9309375 -11.83984375 27.796875 C-11.91031636 29.8640715 -11.95744939 31.93204033 -12 34 C-12.33 34 -12.66 34 -13 34 C-14.9069941 12.84170046 -14.9069941 12.84170046 -10.62109375 7.0234375 C-4.12024965 0 -4.12024965 0 0 0 Z " fill="#F39104" transform="translate(681,541)"/>
<path d="M0 0 C7.59505249 -0.26049483 13.04520223 0.40462102 19.64453125 4.1875 C20.33804688 4.5071875 21.0315625 4.826875 21.74609375 5.15625 C24.43207976 6.61530413 25.85268909 8.75571421 27.64453125 11.1875 C27.31453125 11.8475 26.98453125 12.5075 26.64453125 13.1875 C26.20882812 12.78917969 25.773125 12.39085937 25.32421875 11.98046875 C17.03019035 4.60201491 9.9538867 2.85298077 -1.0078125 2.9765625 C-9.52840167 3.5134491 -16.93011797 6.52531349 -23.35546875 12.1875 C-27.70348888 17.31398661 -30.27872961 22.84190819 -32.35546875 29.1875 C-32.68546875 29.1875 -33.01546875 29.1875 -33.35546875 29.1875 C-33.050614 21.26127641 -30.01412181 13.68805902 -24.98046875 7.49609375 C-17.54150919 1.50558545 -9.11090686 0.50910772 0 0 Z " fill="#F2853D" transform="translate(522.35546875,442.8125)"/>
<path d="M0 0 C0.33 0 0.66 0 1 0 C1.35726389 7.57657822 0.04814698 14.11067321 -1.80859375 21.4375 C-2.09477066 22.59878418 -2.38094757 23.76006836 -2.67579651 24.95654297 C-3.27873312 27.39493107 -3.88664423 29.83209397 -4.49926758 32.26806641 C-5.44084527 36.0133062 -6.36719799 39.76206278 -7.29101562 43.51171875 C-7.87933232 45.88303001 -8.46849481 48.25413162 -9.05859375 50.625 C-9.3377916 51.75091553 -9.61698944 52.87683105 -9.90464783 54.03686523 C-10.16484207 55.06884033 -10.42503632 56.10081543 -10.69311523 57.1640625 C-10.92183823 58.07623535 -11.15056122 58.9884082 -11.38621521 59.92822266 C-12 62 -12 62 -13 63 C-15.67058851 63.14115161 -18.32432238 63.04247107 -21 63 C-21 61.35 -21 59.7 -21 58 C-17.535 57.505 -17.535 57.505 -14 57 C-7.07 28.785 -7.07 28.785 0 0 Z " fill="#F39104" transform="translate(625,517)"/>
<path d="M0 0 C9.9 0 19.8 0 30 0 C30 1.65 30 3.3 30 5 C20.1 5 10.2 5 0 5 C0 3.35 0 1.7 0 0 Z " fill="#F57D2E" transform="translate(525,499)"/>
<path d="M0 0 C0.83660156 0.144375 1.67320312 0.28875 2.53515625 0.4375 C-2.41384285 6.39732408 -7.74093581 11.89692623 -13.21484375 17.375 C-14.07722656 18.24962891 -14.93960938 19.12425781 -15.828125 20.02539062 C-17.06369141 21.26385742 -17.06369141 21.26385742 -18.32421875 22.52734375 C-19.07155273 23.27878662 -19.81888672 24.03022949 -20.58886719 24.80444336 C-22.46484375 26.4375 -22.46484375 26.4375 -24.46484375 26.4375 C-24.79484375 25.4475 -25.12484375 24.4575 -25.46484375 23.4375 C-23.65694481 20.41394488 -20.89386629 17.96634538 -18.46484375 15.4375 C-17.61768799 14.52774414 -17.61768799 14.52774414 -16.75341797 13.59960938 C-14.82059968 11.52819655 -12.8644329 9.48118288 -10.90234375 7.4375 C-10.26554688 6.75397461 -9.62875 6.07044922 -8.97265625 5.36621094 C-4.2479872 0.53638621 -4.2479872 0.53638621 0 0 Z " fill="#F39104" transform="translate(716.46484375,505.5625)"/>
<path d="M0 0 C1.7931094 1.930676 3.38554023 3.91069912 5 6 C4.67 6.66 4.34 7.32 4 8 C2.62437146 6.71034824 1.29233607 5.37310707 0 4 C0 3.34 0 2.68 0 2 C-0.845625 1.731875 -1.69125 1.46375 -2.5625 1.1875 C-6 0 -6 0 -9 -1.625 C-14.62307752 -4.09915411 -21.00520894 -3.2724905 -27 -3 C-27.86625 -2.9690625 -28.7325 -2.938125 -29.625 -2.90625 C-34.54260024 -2.56474998 -38.11757741 -1.23414657 -42.37109375 1.2578125 C-42.90863281 1.50273437 -43.44617188 1.74765625 -44 2 C-44.66 1.67 -45.32 1.34 -46 1 C-31.68477347 -8.32836483 -14.39258884 -11.44865021 0 0 Z " fill="#F97016" transform="translate(546,447)"/>
<path d="M0 0 C3.59372955 1.77468126 7.14405145 3.62709103 10.6875 5.5 C11.84636719 6.1084375 13.00523437 6.716875 14.19921875 7.34375 C17 9 17 9 18 11 C26.09266149 15.04633074 35.19990508 15.35660596 44.0625 15.625 C45.11888672 15.66367187 46.17527344 15.70234375 47.26367188 15.7421875 C49.84228408 15.83553093 52.42090608 15.92131253 55 16 C55 16.33 55 16.66 55 17 C51.20840036 17.05886171 47.41692081 17.09388224 43.625 17.125 C42.03365234 17.15013672 42.03365234 17.15013672 40.41015625 17.17578125 C30.65467471 17.23563083 21.37114388 16.43254372 13 11 C12.50371094 10.50242187 12.00742187 10.00484375 11.49609375 9.4921875 C9.92002584 7.92023465 8.47369052 7.0709866 6.5 6.0625 C3.56057102 4.45296067 1.77085796 2.91670722 0 0 Z " fill="#F87823" transform="translate(483,534)"/>
<path d="M0 0 C0.66 0.33 1.32 0.66 2 1 C1.40832031 1.65484375 0.81664062 2.3096875 0.20703125 2.984375 C-5.49288548 9.56763934 -9.14513249 15.77970309 -12 24 C-12.33 24 -12.66 24 -13 24 C-12.69425293 16.05057621 -9.64935997 8.33952391 -4.4921875 2.20703125 C-3 1 -3 1 0 0 Z " fill="#EF7F34" transform="translate(502,448)"/>
<path d="M0 0 C2.52483885 3.78725827 3.99856097 7.77696443 5.68359375 11.9921875 C6.92795174 14.83537935 8.36418437 17.36827458 10 20 C12.15686275 24.52941176 12.15686275 24.52941176 11 28 C5.67666567 19.89609241 -0.6302421 10.02826395 0 0 Z " fill="#E6813F" transform="translate(465,503)"/>
<path d="M0 0 C-0.33 1.32 -0.66 2.64 -1 4 C-4.99795892 4.95619733 -8.70803922 5.1039592 -12.8125 5.0625 C-13.97394531 5.05347656 -15.13539063 5.04445313 -16.33203125 5.03515625 C-17.21246094 5.02355469 -18.09289062 5.01195312 -19 5 C-18.67 4.34 -18.34 3.68 -18 3 C-15.52982661 2.35740119 -13.12978118 1.83126126 -10.625 1.375 C-9.93921875 1.2409375 -9.2534375 1.106875 -8.546875 0.96875 C-5.65099843 0.41661789 -2.95439007 0 0 0 Z " fill="#F7731B" transform="translate(575,457)"/>
<path d="M0 0 C8.58 0 17.16 0 26 0 C26 0.99 26 1.98 26 3 C17.75 2.67 9.5 2.34 1 2 C0.67 1.34 0.34 0.68 0 0 Z " fill="#F96E12" transform="translate(529,499)"/>
<path d="M0 0 C4.29 0 8.58 0 13 0 C11.35 1.32 9.7 2.64 8 4 C7.67 4.33 7.34 4.66 7 5 C4.66702567 5.04092937 2.33294775 5.04241723 0 5 C0 3.35 0 1.7 0 0 Z " fill="#F39104" transform="translate(655,575)"/>
<path d="M0 0 C0 0.99 0 1.98 0 3 C-6.17670345 6.48429425 -12.86146847 8.46055042 -20 8 C-16.64309635 5.76206424 -13.1660716 4.34949662 -9.4375 2.875 C-8.75236328 2.59785156 -8.06722656 2.32070313 -7.36132812 2.03515625 C-2.2533867 0 -2.2533867 0 0 0 Z " fill="#F58134" transform="translate(567,540)"/>
<path d="M0 0 C6.79312664 -0.11007381 10.47692112 1.54734254 15.46875 6.11328125 C17.0901731 8.11110614 17.60013998 9.48421403 18 12 C16.2925002 10.71937515 14.62626404 9.38232443 13 8 C13 7.34 13 6.68 13 6 C11.7315625 5.5978125 11.7315625 5.5978125 10.4375 5.1875 C6.86145933 3.9521405 3.46139092 2.523012 0 1 C0 0.67 0 0.34 0 0 Z " fill="#F77620" transform="translate(533,443)"/>
<path d="M0 0 C2.64 0 5.28 0 8 0 C8 1.65 8 3.3 8 5 C5.36 5 2.72 5 0 5 C0 3.35 0 1.7 0 0 Z " fill="#F39104" transform="translate(631,575)"/>
<path d="M0 0 C0.53915039 0.4844458 1.07830078 0.9688916 1.63378906 1.46801758 C4.55768283 3.36106683 6.39550128 3.42335462 9.859375 3.51171875 C11.53193359 3.56489258 11.53193359 3.56489258 13.23828125 3.61914062 C14.39714844 3.64169922 15.55601562 3.66425781 16.75 3.6875 C18.51150391 3.73874023 18.51150391 3.73874023 20.30859375 3.79101562 C23.20563389 3.87345173 26.10237298 3.94261811 29 4 C29 4.33 29 4.66 29 5 C19.43 5 9.86 5 0 5 C0 3.35 0 1.7 0 0 Z " fill="#EA8A49" transform="translate(525,499)"/>
<path d="M0 0 C2 3 2 3 2 5 C-2.1196377 6.29243536 -5.66831683 7.26252625 -10 7 C-7.64046906 4.64046906 -6.22104383 4.50858587 -3 4 C-2.67 3.01 -2.34 2.02 -2 1 C-1.34 0.67 -0.68 0.34 0 0 Z " fill="#E18344" transform="translate(577,456)"/>
<path d="M0 0 C4.20626034 1.50223584 5.73900021 4.28550034 8 8 C4.20645982 6.50968064 2.3521464 4.27620391 0 1 C0 0.67 0 0.34 0 0 Z " fill="#EC8745" transform="translate(477,531)"/>
</svg>
